<?xml version="1.0" standalone="no"?>
<!DOCTYPE svg PUBLIC "-//W3C//DTD SVG 20010904//EN"
 "http://www.w3.org/TR/2001/REC-SVG-20010904/DTD/svg10.dtd">
<svg version="1.0" xmlns="http://www.w3.org/2000/svg"
 width="1031.000000pt" height="242.000000pt" viewBox="0 0 1031.000000 242.000000"
 preserveAspectRatio="xMidYMid meet"> 

<g transform="translate(0.000000,242.000000) scale(0.100000,-0.100000)"
fill="#000000" stroke="none">
<path fill="#00AA13" d="M1065 2400 c-245 -30 -496 -147 -677 -315 -177 -165 -295 -371 -356
-618 -13 -55 -17 -115 -17 -257 0 -196 5 -229 62 -400 90 -271 313 -523 587
-665 93 -48 113 -55 163 -55 34 0 74 8 98 19 88 39 145 149 124 238 -19 88
-52 124 -166 182 -162 81 -278 195 -352 345 -63 129 -75 182 -75 336 0 119 3
145 27 220 81 257 277 443 547 518 87 24 286 21 383 -6 132 -37 232 -93 328
-184 168 -158 258 -406 229 -631 -25 -191 -88 -318 -224 -452 -75 -74 -109
-99 -189 -139 -59 -30 -111 -64 -132 -87 -71 -79 -73 -198 -4 -282 71 -86 185
-99 314 -37 332 160 567 453 657 819 18 70 22 118 22 261 1 183 -8 244 -56
383 -118 348 -404 633 -756 753 -141 49 -384 73 -537 54z"/>
<path fill="#00AA13" d="M8850 1510 l0 -890 178 2 177 3 3 192 2 191 116 108 c65 60 118 103
123 98 4 -5 43 -58 86 -119 85 -119 207 -288 292 -403 l53 -72 210 0 c116 0
210 2 210 5 0 5 -162 220 -440 585 -77 102 -149 197 -160 211 l-20 27 68 64
c37 36 148 141 247 234 99 93 209 197 245 231 l65 63 -240 0 -240 0 -210 -196
c-115 -107 -254 -236 -307 -286 l-98 -90 0 466 0 466 -180 0 -180 0 0 -890z"/>
<path fill="#00AA13" d="M4217 2043 c-4 -3 -7 -39 -7 -80 0 -40 -4 -73 -8 -73 -5 0 -17 9 -27
20 -26 29 -109 74 -185 100 -80 28 -285 39 -383 21 -252 -48 -448 -215 -530
-450 -26 -72 -31 -105 -35 -208 -5 -144 11 -234 62 -339 123 -254 366 -400
666 -398 167 2 309 48 401 131 l41 37 -4 -114 c-3 -100 -7 -122 -31 -166 -32
-62 -93 -117 -167 -152 -45 -21 -74 -26 -160 -30 -169 -6 -291 29 -405 116
l-50 38 -123 -115 -123 -116 38 -34 c161 -143 362 -218 605 -228 262 -11 447
53 598 206 68 70 113 143 151 251 l24 65 3 763 3 762 -174 0 c-95 0 -177 -3
-180 -7z m-322 -334 c123 -23 228 -93 275 -185 23 -45 25 -60 25 -184 0 -121
-2 -140 -23 -182 -68 -138 -255 -218 -440 -189 -95 14 -149 38 -207 92 -60 55
-92 120 -107 214 -21 134 15 248 104 331 96 90 235 129 373 103z"/>
<path fill="#00AA13" d="M5431 2039 c-252 -39 -471 -197 -568 -409 -77 -170 -78 -412 0 -579
154 -335 572 -501 957 -380 309 97 500 353 500 669 0 337 -214 600 -560 686
-74 18 -250 25 -329 13z m253 -334 c178 -54 283 -231 256 -427 -19 -129 -93
-231 -210 -286 -49 -24 -67 -26 -170 -27 -111 0 -118 1 -182 33 -82 40 -148
111 -179 190 -32 80 -32 223 -1 303 39 100 129 181 235 214 57 18 191 18 251
0z"/>
<path fill="#00AA13" d="M6548 1226 l-3 -824 -23 -25 c-32 -34 -92 -47 -216 -47 l-106 0 0
-166 0 -167 188 6 c198 5 263 17 350 61 86 44 147 132 171 244 8 36 11 318 11
897 l0 845 -185 0 -185 0 -2 -824z"/>
<path fill="#00AA13" d="M7710 2025 c-313 -73 -522 -305 -548 -611 -36 -406 192 -697 603
-770 294 -52 561 24 749 212 l38 38 -28 23 c-15 12 -72 52 -125 88 l-97 66
-48 -36 c-100 -77 -187 -105 -322 -105 -128 0 -242 43 -327 121 -44 41 -85
112 -85 149 0 20 6 20 550 20 l550 0 0 83 c0 226 -65 392 -210 537 -87 87
-194 146 -324 180 -93 23 -286 26 -376 5z m368 -319 c69 -32 124 -85 153 -150
37 -82 65 -76 -346 -76 l-364 0 14 45 c7 25 19 54 26 63 87 115 174 153 344
149 96 -2 118 -6 173 -31z"/>
<path fill="#00AA13" d="M1150 1654 c-151 -26 -283 -127 -346 -264 -112 -240 22 -524 286
-610 57 -19 192 -19 250 -1 90 29 195 107 250 187 90 129 93 353 8 479 -27 38
-120 135 -130 135 -5 0 -25 10 -46 23 -20 12 -53 28 -72 34 -39 14 -161 24
-200 17z"/>
</g>
</svg>
